<?xml version="1.0" encoding="UTF-8"?>
<svg width="636px" height="636px" viewBox="0 0 636 636" version="1.1" xmlns="http://www.w3.org/2000/svg" xmlns:xlink="http://www.w3.org/1999/xlink">
    <!-- Generator: Sketch 62 (91390) - https://sketch.com -->
    <title>illustration/iam-idproofing</title>
    <desc>Created with Sketch.</desc>
    <defs>
        <linearGradient x1="100%" y1="0%" x2="100%" y2="100%" id="linearGradient-1">
            <stop stop-color="#E1C5E6" offset="0%"></stop>
            <stop stop-color="#FFFFFF" stop-opacity="0" offset="100%"></stop>
        </linearGradient>
    </defs>
    <g id="illustration/iam-idproofing" stroke="none" stroke-width="1" fill="none" fill-rule="evenodd">
        <g id="Group">
            <path d="M334,53 L387,104.255859 L387,493.255859 L281,493.255859 L281,104.255859 L334,53 Z M209,160 L209,493 L103,493 L103,160 L209,160 Z M514,321 L514,493 L408,493 L408,321 L514,321 Z M434,363 L420,363 L420,379 L434,379 L434,363 Z M457,363 L443,363 L443,379 L457,379 L457,363 Z M480,363 L466,363 L466,379 L480,379 L480,363 Z M503,363 L489,363 L489,379 L503,379 L503,363 Z M143,196 L129,196 L129,212 L143,212 L143,196 Z M166,196 L152,196 L152,212 L166,212 L166,196 Z M189,196 L175,196 L175,212 L189,212 L189,196 Z M374,170.255859 L295,170.255859 L295,179.255859 L374,179.255859 L374,170.255859 Z M374,145.255859 L295,145.255859 L295,154.255859 L374,154.255859 L374,145.255859 Z M374,120.255859 L295,120.255859 L295,129.255859 L374,129.255859 L374,120.255859 Z" id="Combined-Shape" fill="url(#linearGradient-1)"></path>
            <g id="Bottom/Standing/Skinny-Jeans" transform="translate(81.000000, 284.000000)">
                <polygon id="Leg" fill="#AD1AAC" points="128 9.9475983e-14 164.254962 127.226909 190.706957 221 210 221 181.890974 9.9475983e-14"></polygon>
                <polygon id="Leg" fill-opacity="0.1" fill="#000000" points="128 0 164.254962 127.226909 190.706957 221 210 221 181.890974 0"></polygon>
                <path d="M118.304342,0 C117.465768,65.5742244 114.606247,101.340188 113.725779,107.297892 C112.845311,113.255595 99.5321718,151.156298 73.7863613,221 L93.7726468,221 C126.549033,153.996902 144.845651,116.096199 148.662499,107.297892 C152.479348,98.4995844 164.258515,62.7336205 182,0 L118.304342,0 Z" id="Leg" fill="#AD1AAC"></path>
                <g id="Accessories/Shoe/Flat-Pointy" transform="translate(72.000000, 199.000000)" fill="#6D2077">
                    <path d="M0,40 L1,19 L22,19 C31.9576033,26 44.9576033,31.6666667 61,36 L61,40 L23,40 L10,38 L10,40 L0,40 Z" id="Shoe"></path>
                </g>
                <g id="Accessories/Shoe/Flat-Pointy" transform="translate(188.000000, 199.000000)" fill="#6D2077">
                    <path d="M0,40 L1,19 L22,19 C31.9576033,26 44.9576033,31.6666667 61,36 L61,40 L23,40 L10,38 L10,40 L0,40 Z" id="Shoe"></path>
                </g>
            </g>
            <g id="Head/Front/Short-1" transform="translate(167.000000, 73.000000)">
                <g id="Head" stroke-width="1" transform="translate(54.000000, 31.000000)" fill="#9963A0">
                    <path d="M38.1433414,9.13393292 C43.9381521,19.9350547 43.249578,47.3329958 35.7603014,49.2634576 C32.773664,50.0333035 26.4113241,48.1475566 19.935865,44.2446031 L24,73 L0,73 L8.26160177,34.4893378 C3.65406109,29.0807313 0.535660132,22.452516 1.05677633,15.0254539 C2.55833022,-6.37502057 32.3485306,-1.66718886 38.1433414,9.13393292 Z"></path>
                </g>
                <path d="M56.8333728,40.5449439 C62.305436,18.061277 93.269175,32.0204355 99.2270045,28.2267775 C100.529381,36.3900449 96.3289005,42.9723487 81.5610809,41.7006155 C78.3025808,43.5210619 75.9844328,46.9352721 73.1938192,51.4139439 C72.5147713,51.1467554 71.7745239,51 71,51 C67.6862915,51 65,53.6862915 65,57 C65,58.6817919 65.6919409,60.2019722 66.806667,61.2913854 C65.4199418,63.2508354 63.8637166,65.2983771 62.0803863,67.4111902 C55.433612,63.4233961 50.4882201,51.8083878 56.812313,40.5875403 Z" id="Hair" fill="#6D2077"></path>
            </g>
            <g id="Body/Sport-Coat" transform="translate(106.000000, 168.000000)">
                <path d="M54.3748075,70.4422362 L71.7206892,74.8517457 C48.5010655,113.888004 36.0840272,134.518222 34.4695742,136.742401 C30.8370549,141.746803 33.4753713,151.405575 34.3717289,156.466114 C27.0159775,157.777312 30.4552622,146.986888 21.1392043,148.78923 C12.6359386,150.434324 5.23841582,155.412199 -2.21044035,147.785504 C-3.12623345,146.847846 -3.68533756,144.037711 -0.329858103,142.787288 C8.0298649,139.672029 20.4540206,133.669529 22.5472206,131.196025 C25.4016727,127.82296 36.0108683,107.571697 54.3748075,70.4422362 L54.3748075,70.4422362 Z M197.692975,90.2442388 L227.879596,115.83589 C236.347145,118.768177 243.354953,122.169788 248.90302,126.040723 C250.183668,127.382731 251.660283,130.022417 246.018183,129.189525 C240.376083,128.356632 234.403982,127.734299 233.485976,129.614404 C232.56797,131.49451 235.838922,134.048404 234.074175,136.548369 C232.897677,138.215012 228.219551,133.502554 220.039797,122.410996 L189.442799,107.140857 L197.692975,90.2442388 Z" id="Skin" fill="#9963A0" transform="translate(123.586250, 113.509597) rotate(-4.000000) translate(-123.586250, -113.509597) "></path>
                <path d="M138.264162,2.04144427 C153.1728,32.8586321 173.34952,62.4239679 203.321564,87.6788376 C207.426219,87.3835185 211.889688,88.0634542 216.675075,89.6758318 C219.030261,90.4693828 220.296216,93.0219384 219.502665,95.3771242 C219.041858,96.7447568 217.987913,97.7450999 216.723906,98.188165 C217.638754,98.8563073 218.562849,99.520867 219.495159,100.181671 L211.447983,116.609623 C177.58505,99.7255288 145.757134,86.9958405 131.253857,59.1215578 C126.386182,49.766228 128.033751,17.9882599 127.569134,6.42756866 L138.264162,2.04144427 Z" id="Back-Arm" fill="#6D2077"></path>
                <path d="M90,113.909745 C121.438326,117.363418 146.183737,117.363418 164.236234,113.909745 C166.472817,113.481858 166.374598,103.840401 165.337385,101.207228 C149.185283,60.2018743 138.560302,30.1840325 138.560302,1.70263734 C135.596594,3.25072994 130.409827,3.48273097 123,2.39864042 C103.086202,31.7496339 93.9325378,65.4265407 90,113.909745 Z" id="Shirt" fill="#DFE5F7"></path>
                <path d="M126.348425,-2.0076385e-11 C123,44.2807404 169.249642,70.9549002 153.190593,153.518112 C123.507857,160.146789 117.13191,139.522766 75.8828129,156 C77.6443589,117.840793 81.8809565,142.027523 88.0917371,103.583451 C90.1104671,91.0877276 86.6615358,78.8352569 86.8232868,66.8032625 C70.74366,80.520789 56.3182848,104.210654 43.5479488,137.871041 L43.5479488,137.871041 L24.6611622,132.313477 C25.3819892,129.635524 26.1286459,126.990471 26.9011324,124.378317 C24.72195,123.144957 22.1728798,117.466228 24.0066041,116.516161 C25.8996562,115.535355 27.905105,114.844989 30.0170446,114.438594 C47.3349841,62.2796711 75.6543384,24.1331607 114.975674,-2.07123207e-11 L114.975674,-2.07123207e-11 Z" id="Coat-Front" fill="#6D2077"></path>
                <polygon id="Shade-Lapel" fill-opacity="0.1" fill="#000000" points="119.105759 1 113.946604 16.8654451 124.335997 28.7590435 114.946604 38.1055065 137.662251 77 109.883587 38.1832119 119.105759 28.7590435 109.883587 18.2484583"></polygon>
            </g>
            <g id="Icon/Card/White/Mobile" transform="translate(432.500000, 243.000000) scale(-1, 1) translate(-432.500000, -243.000000) translate(351.000000, 136.000000)">
                <g id="mobile-android" transform="translate(81.389152, 106.718864) rotate(-14.000000) translate(-81.389152, -106.718864) translate(21.889152, 11.718864)">
                    <path d="M0,142.3125 L0,171.960938 C0,181.785565 7.96443457,189.75 17.7890625,189.75 L100.804687,189.75 C110.629315,189.75 118.59375,181.785565 118.59375,171.960938 L118.59375,142.3125 L0,142.3125 Z M77.0859375,167.513672 C77.0859375,169.969829 75.0948289,171.960938 72.6386719,171.960938 L45.9550781,171.960938 C43.4989211,171.960938 41.5078125,169.969829 41.5078125,167.513672 L41.5078125,164.548828 C41.5078125,162.092671 43.4989211,160.101563 45.9550781,160.101563 L72.6386719,160.101563 C75.0948289,160.101563 77.0859375,162.092671 77.0859375,164.548828 L77.0859375,167.513672 Z" id="Shape" fill="#A654B7"></path>
                    <rect id="Rectangle" fill="#C48DCF" x="19.55" y="23" width="77.05" height="94.3"></rect>
                    <path d="M-4.13535872e-13,142.3125 L-4.13535872e-13,17.7890625 C-4.13535872e-13,7.96443457 7.96443457,-7.33280103e-12 17.7890625,-7.33280103e-12 L100.804687,-7.33280103e-12 C110.629315,-7.33280103e-12 118.59375,7.96443457 118.59375,17.7890625 L118.59375,142.3125 L-4.13535872e-13,142.3125 Z" id="Combined-Shape" fill="#87189D"></path>
                </g>
            </g>
            <g id="Icon/Card/White/Fingerprint" transform="translate(438.000000, 224.000000) rotate(13.000000) translate(-438.000000, -224.000000) translate(392.000000, 178.000000)" fill="#FFFFFF">
                <g id="fingerprint" transform="translate(11.960000, 11.960000)">
                    <path d="M68.0737354,27.4617315 C67.8365853,26.3266291 67.007726,25.406542 65.9034568,25.0525827 C64.7991876,24.6986233 63.5898924,24.9654062 62.7370478,25.7511248 C61.8842031,26.5368434 61.5193993,27.7202648 61.7818482,28.849786 C62.4141245,31.7238911 62.4409728,33.871751 62.4127821,37.1190467 C62.4056318,37.9735273 62.7382307,38.795848 63.3374049,39.4050923 C63.9365791,40.0143366 64.7532426,40.3605938 65.6077237,40.3676848 L65.634572,40.3676848 C67.403485,40.3676848 68.8416209,38.9415948 68.8563619,37.1727432 C68.8805253,34.1952724 68.9100584,31.2513619 68.0737354,27.4617315 L68.0737354,27.4617315 Z M34.5147665,33.1575875 C32.7354211,33.1575875 31.2929767,34.600032 31.2929767,36.3793774 C31.4485905,45.9765111 30.1957638,55.5445796 27.5744942,64.7781128 C27.2080156,66.0829377 27.8631128,68.8711284 30.6781518,68.8711284 C32.1215514,68.8700068 33.3880645,67.9090146 33.7777821,66.5192218 C36.5673957,56.7209493 37.9008069,46.5656754 37.735214,36.3793774 C37.7352142,34.6005561 36.2935877,33.1583287 34.5147665,33.1575875 Z M19.5401556,19.5253891 C18.1596438,18.4030404 16.130702,18.6121849 15.0081712,19.9925486 C11.5626211,24.2379615 9.72109399,29.5605687 9.80632296,35.0275681 C9.88624036,40.0701246 9.47667535,45.1085385 8.58338521,50.0719844 C8.26829241,51.8227055 9.43169881,53.497506 11.1822957,53.8132879 C13.8818872,54.2831323 14.8162062,51.8251751 14.926284,51.2143774 C15.8930395,45.8407763 16.336321,40.3860755 16.2499027,34.9268872 C16.1657886,30.9700699 17.4989162,27.1135221 20.0086576,24.0533463 C21.1279592,22.6731102 20.9183422,20.6472133 19.5401556,19.5253891 L19.5401556,19.5253891 Z" id="Shape" fill-rule="nonzero" opacity="0.4"></path>
                    <path d="M62.6906615,15.2833658 C56.1202261,5.94951236 45.4834552,0.319307875 34.070428,0.134241245 C24.7003891,0.0241634241 16.0364591,3.47819066 9.59153696,9.92579767 C3.39481674,16.0850945 -0.0154401657,24.5093796 0.151692607,33.2448444 L0.134241245,36.1270039 C0.0823209705,37.9051049 1.48129664,39.3888123 3.25937743,39.4414205 L3.35603113,39.4414205 C5.09931617,39.4421619 6.52697535,38.0561428 6.57782101,36.3135992 L6.59929961,33.1401362 C6.46491695,26.1497459 9.19445772,19.4083428 14.1543969,14.4806031 C19.3549027,9.27472763 26.4133074,6.47311284 33.9764591,6.57782101 C43.3233019,6.72807137 52.0351408,11.3374334 57.4176654,18.9803696 C58.0604113,19.966381 59.1896945,20.5234216 60.3632468,20.4333342 C61.5367991,20.3432468 62.5678298,19.6203704 63.0525501,18.5478094 C63.5372704,17.4752485 63.3985287,16.2237192 62.6906615,15.2833658 Z M34.2315175,11.1581323 C32.162624,11.1159426 30.0969636,11.3415499 28.0859533,11.8293385 C26.9656129,12.0945561 26.0718675,12.9373217 25.7413825,14.0401738 C25.4108974,15.1430258 25.6938812,16.3384148 26.4837366,17.1760493 C27.2735919,18.0136838 28.4503211,18.3663071 29.5706615,18.1010895 C31.0668809,17.7546463 32.5991578,17.5883492 34.1348638,17.6057393 C44.2606809,17.7574319 52.6239105,25.8615759 52.7782879,35.6719261 C52.8574744,40.7673646 52.6072642,45.8625946 52.0292218,50.9257588 C51.9317986,51.7747212 52.1756396,52.6276111 52.7070955,53.2967772 C53.2385513,53.9659432 54.0140812,54.3965626 54.8630545,54.4938911 C57.1075681,54.7556615 58.2875486,52.8991051 58.4311868,51.6600584 C59.0420657,46.3207114 59.3075207,40.947489 59.2258949,35.57393 C59.0164786,22.3108949 47.8059922,11.3594942 34.2315175,11.1581323 Z M34.3952918,22.1806705 C26.1716732,22.171284 20.4342023,28.4994163 20.546965,35.7511284 C20.6485692,42.1761997 20.046718,48.593095 18.7521595,54.8872179 C18.4996052,56.0220434 18.8780343,57.204915 19.7423874,57.9824149 C20.6067406,58.7599148 21.8229361,59.0114344 22.9247826,58.6405613 C24.0266291,58.2696882 24.8432039,57.3339536 25.0614981,56.1920428 C26.4520519,49.4366412 27.0989203,42.5493157 26.9905447,35.6531323 C26.9355058,32.169572 29.6646304,28.6068093 34.2999805,28.6269455 C38.5030739,28.6900389 41.9718677,32.0286187 42.0349611,36.0733074 C42.1373063,42.5264159 41.66063,48.9756989 40.6106615,55.3436381 C40.3214974,57.0983495 41.5087801,58.7554981 43.2632685,59.0460117 C45.9480934,59.493035 46.8622763,57.0189689 46.965642,56.3920623 C48.0798007,49.6458648 48.587471,42.813431 48.4825681,35.9766537 C48.3644358,28.4792802 42.0470428,22.2934436 34.3993191,22.1806705 L34.3952918,22.1806705 Z" id="Shape" fill-rule="nonzero"></path>
                </g>
            </g>
        </g>
    </g>
</svg>